{"title":"Unknown 2011 Custom NTSC DVD-R - DTRG - SAFCuk009","uid":6424498,"size":2419851378,"categoryP":"video","categoryS":"movies_dvdr","magnet":"?xt=urn:btih:06fc87dac290fdfb680f419e400f5abfdbe68f04&amp;dn=Unknown+2011+Custom+NTSC+DVD-R+-+DTRG+-+SAFCuk009&amp;tr=udp%3A%2F%2Ftracker.openbittorrent.com%3A80&amp;tr=udp%3A%2F%2Fopen.demonii.com%3A1337&amp;tr=udp%3A%2F%2Ftracker.coppersurfer.tk%3A6969&amp;tr=udp%3A%2F%2Fexodus.desync.com%3A6969","seeders":0,"leechers":1,"uploader":"SAFCukO09","files":3,"time":1306410419,"description":"Format : MPEG-PS\nFile size : 2.22 GiB\nDuration : 1h 53mn\nOverall bit rate : 2 814 Kbps\n\nVideo\nID : 224 (0xE0)\nFormat : MPEG Video\nFormat version : Version 2\nFormat profile : Main@Main\nFormat settings, BVOP : Yes\nFormat settings, Matrix : Default\nFormat settings, GOP : M=3, N=15\nDuration : 1h 53mn\nBit rate mode : Variable\nBit rate : 2 502 Kbps\nNominal bit rate : 8 944 Kbps\nWidth : 720 pixels\nHeight : 480 pixels\nDisplay aspect ratio : 16:9\nFrame rate : 29.970 fps\nStandard : NTSC\nColor space : YUV\nChroma subsampling : 4:2:0\nBit depth : 8 bits\nScan type : Progressive\nCompression mode : Lossy\nBits/(Pixel*Frame) : 0.242\nStream size : 1.98 GiB (89%)\n\nAudio\nID : 189 (0xBD)-128 (0x80)\nFormat : AC-3\nFormat/Info : Audio Coding 3\nMode extension : CM (complete main)\nMuxing mode : DVD-Video\nDuration : 1h 53mn\nBit rate mode : Constant\nBit rate : 256 Kbps\nChannel(s) : 2 channels\nChannel positions : Front: L R\nSampling rate : 48.0 KHz\nBit depth : 16 bits\nCompression mode : Lossy\nStream size : 207 MiB (9%)\n\nMenu\n\n\n\n &lt;a href=&quot;\nhttp://www.imdb.com/title/tt1401152/&quot; rel=&quot;nofollow&quot; target=&quot;_NEW&quot;&gt;\nhttp://www.imdb.com/title/tt1401152/&lt;/a&gt;\n\n\n\n\n\n\n\n\nUsers: 7.2/10 (14,889 votes) 134 reviews | Critics: 235 reviews Metascore: 56/100 (based on 38 reviews from Metacritic.com)\n\nA man awakens from a coma, only to discover that someone has taken on his identity and that no one, (not even his wife), believes him. With the help of a young woman, he sets out to prove who he is.\nDirector:\nJaume Collet-Serra\nWriters:\nOliver Butcher (screenplay), Stephen Cornwell (screenplay), and 1 more credit Ã‚Â»\nStars:\nLiam Neeson, Diane Kruger and January Jones\n\n\n\n\n\n\n\n\n\n\n\n\n\n\n\n\n\n\n\n\nKINOPARK ....Thanks\n\nNothing special just done a custom NTSC DVD-R of my encode basically cos ive never upped one ...Not sure many will want but for those that do enjoy !\n\nJust burn or mount the ISO its up to you\n\n\n\n\nGreetz to IMAGiNE,Flawl3ss,DiLLoN,BDK,NOiR,TOXiCiNK,THC,Ez,Rx,Boobyblue,TaRiQ786,LKRG,CrEwSaDe\n","torrent":{"xt":"urn:btih:06fc87dac290fdfb680f419e400f5abfdbe68f04","amp;dn":"Unknown+2011+Custom+NTSC+DVD-R+-+DTRG+-+SAFCuk009","amp;tr":["udp%3A%2F%2Ftracker.openbittorrent.com%3A80","udp%3A%2F%2Fopen.demonii.com%3A1337","udp%3A%2F%2Ftracker.coppersurfer.tk%3A6969","udp%3A%2F%2Fexodus.desync.com%3A6969"],"infoHash":"06fc87dac290fdfb680f419e400f5abfdbe68f04","infoHashBuffer":{"type":"Buffer","data":[6,252,135,218,194,144,253,251,104,15,65,158,64,15,90,191,219,230,143,4]},"announce":[],"urlList":[]}}